<?xml version="1.0" encoding="utf-8"?>
<!-- Generator: Adobe Illustrator 17.1.0, SVG Export Plug-In . SVG Version: 6.00 Build 0)  -->
<!DOCTYPE svg PUBLIC "-//W3C//DTD SVG 1.1//EN" "http://www.w3.org/Graphics/SVG/1.1/DTD/svg11.dtd">
<svg version="1.1" id="Layer_1" xmlns="http://www.w3.org/2000/svg" xmlns:xlink="http://www.w3.org/1999/xlink" x="0px" y="0px"
	 viewBox="0 0 347 127" enable-background="new 0 0 347 127" xml:space="preserve">
<g>
	<g>
		<path fill="#0080C3" d="M172.433,46.422l-0.693,2.387c-1.001-1.655-2.541-2.656-4.466-2.656c-4.62,0-9.586,5.544-11.395,12.435
			c-1.809,6.891,0.038,12.473,4.658,12.473c2.079,0,4.158-1.809,6.006-4.427l-1.078,3.58h8.123l7.314-23.791H172.433z
			 M169.237,58.433c-1.001,2.849-2.194,5.082-3.85,5.082c-1.232,0-1.078-2.233-0.077-5.082c0.962-2.849,2.464-5.236,3.696-5.236
			C170.623,53.197,170.238,55.584,169.237,58.433z"/>
	</g>
	<g>
		<path fill="#0080C3" d="M225.983,46.422l-0.693,2.387c-1.001-1.655-2.541-2.656-4.504-2.656c-4.62,0-9.624,5.544-11.395,12.435
			c-1.771,6.891,0.077,12.473,4.658,12.473c2.117,0,4.196-1.809,5.967-4.427l-1.039,3.58h8.2l7.315-23.791H225.983z M222.787,58.433
			c-1.001,2.849-2.233,5.082-3.85,5.082c-1.27,0-1.117-2.233-0.115-5.082c1.001-2.849,2.464-5.236,3.734-5.236
			C224.173,53.197,223.75,55.584,222.787,58.433z"/>
	</g>
	<path fill-rule="evenodd" clip-rule="evenodd" fill="#0080C3" d="M245.732,56.7c0.154-0.962-0.038-1.809-0.616-2.079
		c-0.77-0.385-2.04,0.423-2.733,1.848c-0.077,0.193-0.154,0.385-0.231,0.577l-4.119,13.166h-8.508l7.391-23.791h8.508l-1.078,3.426
		c1.963-3.465,5.929-5.082,8.854-3.58c2.887,1.386,2.618,4.35,1.886,7.584l-5.082,16.361h-8.508L245.732,56.7L245.732,56.7z"/>
	<path fill-rule="evenodd" clip-rule="evenodd" fill="#0080C3" d="M153.646,59.241c-3.619,12.05-11.703,14.244-15.745,13.128
		c-2.233-0.731-3.811-2.387-4.581-4.735c-2.079,3.195-5.698,6.044-9.894,4.735c-4.35-1.386-5.313-6.313-2.964-13.089l8.431-25.87
		h8.315l-8.662,27.256c-0.462,1.463-0.193,2.541,1.039,2.464c1.039-0.038,1.963-0.885,2.656-2.502
		c0.077-0.231,0.193-0.424,0.27-0.654l8.585-26.563h8.316l-8.623,27.256c-0.462,1.463-0.193,2.541,1.04,2.464
		c1.039-0.038,2.002-0.885,2.656-2.502c0.077-0.231,0.154-0.424,0.231-0.654l8.624-26.563h8.623L153.646,59.241L153.646,59.241z"/>
	<g>
		<path fill="#0080C3" d="M310.985,46.422l-0.731,2.387c-0.963-1.655-2.502-2.656-4.466-2.656c-4.62,0-9.624,5.544-11.395,12.435
			c-1.809,6.891,0.039,12.473,4.658,12.473c2.117,0,4.196-1.809,5.967-4.427l-1.039,3.58h8.2l7.314-23.791H310.985z M307.751,58.433
			c-0.962,2.849-2.194,5.082-3.85,5.082c-1.232,0-1.116-2.233-0.116-5.082c1.039-2.849,2.502-5.236,3.734-5.236
			C309.176,53.197,308.753,55.584,307.751,58.433z"/>
	</g>
	<g>
		<path fill="#0080C3" d="M276.029,59.896c1.809-5.428,1.54-11.395-2.464-13.474c-4.697-2.31-11.28-0.231-15.63,5.929
			c-4.312,6.16-4.774,14.283-0.116,16.862c4.735,2.618,11.203,1.001,15.515-4.735l-6.314-3.272
			c-0.962,1.771-2.541,2.656-3.503,2.156c-0.924-0.539-0.924-2.079-0.27-3.465H276.029z M265.597,53.736
			c0.924-1.655,2.233-2.04,3.003-1.54c0.654,0.462,0.808,1.232,0.462,2.849h-3.965C265.212,54.622,265.404,54.121,265.597,53.736z"
			/>
	</g>
	<path fill-rule="evenodd" clip-rule="evenodd" fill="#0080C3" d="M190.681,65.863c-1.309,2.117-3.696,4.889-7.315,4.889
		c-6.352,0-5.505-6.583-4.35-10.317c1.155-3.734,4.466-14.013,4.466-14.013h7.931l-5.12,16.169c-0.269,1.001,0.115,1.502,0.77,1.502
		c0.693,0.038,1.193-0.347,1.732-1.502l5.274-16.169h7.43l-5.12,16.015c-0.308,0.962,0.038,1.424,0.732,1.424
		c0.693,0,1.039-0.231,1.617-1.271l5.313-16.169h7.738c0,0-2.618,8.931-4.774,15.322c-2.156,6.468-5.736,8.931-10.818,8.931
		C192.567,70.675,190.796,68.404,190.681,65.863L190.681,65.863z"/>
	<g>
		<path fill="#0080C3" d="M268.869,88.923c1.193-3.619,1.001-7.584-1.655-8.931c-3.08-1.54-7.43-0.154-10.317,3.927
			c-2.849,4.081-3.195,9.47-0.077,11.164c3.118,1.732,7.391,0.654,10.279-3.118l-4.196-2.156c-0.654,1.155-1.694,1.732-2.31,1.386
			c-0.616-0.308-0.655-1.347-0.193-2.271H268.869z M261.939,84.804c0.616-1.078,1.501-1.309,2.002-1.001
			c0.423,0.308,0.539,0.847,0.308,1.886l-2.618,0.039C261.708,85.381,261.824,85.073,261.939,84.804z"/>
	</g>
	<g>
		<path fill="#0080C3" d="M220.362,79.606l-0.424,1.54c-0.693-1.116-1.694-1.771-3.003-1.771c-3.08,0-6.391,3.734-7.546,8.277
			c-1.194,4.543,0.038,8.238,3.08,8.238c1.386,0,2.772-1.193,3.965-2.926l-0.693,2.387h5.428l4.851-15.745H220.362z M218.245,87.537
			c-0.655,1.886-1.463,3.388-2.541,3.388c-0.847,0-0.731-1.501-0.077-3.388c0.654-1.886,1.655-3.465,2.464-3.465
			C219.169,84.072,218.938,85.651,218.245,87.537z"/>
	</g>
	<path fill-rule="evenodd" clip-rule="evenodd" fill="#0080C3" d="M281.342,59.434c-2.849-2.079-3.85-5.043-2.425-8.47
		c1.617-4.196,6.083-6.737,11.973-5.582c2.772,0.577,3.696,1.27,5.313,2.387l-4.581,5.929c-0.231-0.539-0.654-1.078-1.347-1.501
		c-1.348-0.808-2.849-0.77-3.272,0.154c-0.423,0.847-0.577,1.809,1.54,2.772l0.308,0.154c1.424,0.962,3.157,1.578,3.773,5.428
		c0,7.122-7.084,10.433-12.82,9.316c-2.387-0.462-3.965-1.039-6.121-2.926l4.697-6.006c0.27,0.732,0.731,1.54,1.809,2.079
		c1.463,0.731,3.041,0.539,3.542-0.423c0.462-0.963,0.462-1.925-1.347-2.772L281.342,59.434L281.342,59.434z"/>
	<path fill-rule="evenodd" clip-rule="evenodd" fill="#0080C3" d="M234.144,86.613c0.116-0.654-0.038-1.232-0.385-1.424
		c-0.539-0.231-1.347,0.308-1.809,1.27c-0.077,0.116-0.154,0.27-0.193,0.385l-2.733,8.739h-5.621l4.928-15.784h5.621l-0.732,2.271
		c1.309-2.31,3.927-3.388,5.852-2.425c1.925,0.924,1.771,2.926,1.27,5.043l-3.349,10.895h-5.621L234.144,86.613L234.144,86.613z"/>
	<path fill-rule="evenodd" clip-rule="evenodd" fill="#0080C3" d="M164.271,86.959c0.115-0.693,0-1.232-0.385-1.424
		c-0.501-0.231-1.347,0.308-1.809,1.27c-0.077,0.115-0.116,0.231-0.192,0.385l-2.695,8.701h-5.621l4.889-15.745h5.621l-0.693,2.271
		c1.27-2.31,3.888-3.388,5.852-2.425c1.848,0.963,1.694,2.926,1.232,5.043l-3.349,10.856h-5.621L164.271,86.959L164.271,86.959z"/>
	<polygon fill-rule="evenodd" clip-rule="evenodd" fill="#0080C3" points="152.414,73.562 158.458,73.562 151.221,95.891 
		145.1,95.891 152.414,73.562 	"/>
	<path fill-rule="evenodd" clip-rule="evenodd" fill="#0080C3" d="M185.83,79.876h5.736l-3.195,9.74
		c-0.193,0.577-0.116,1.193,0.693,1.386c0.577,0.154,1.116-0.27,1.347-0.847l3.503-10.279l5.736,0.039l-3.349,10.009
		c-1.232,3.542-4.273,5.967-8.854,5.967c-4.62,0-5.929-2.926-4.966-6.006C183.481,86.767,185.83,79.876,185.83,79.876L185.83,79.876
		z"/>
	<path fill-rule="evenodd" clip-rule="evenodd" fill="#0080C3" d="M201.306,79.876c0,0-4.581,13.744-5.159,15.553h5.736
		c0,0,1.578-4.543,1.848-5.505c0,0,1.347-6.198,5.351-3.965l2.156-6.506c0,0-2.464-0.462-4.774,1.963l0.578-1.54H201.306
		L201.306,79.876z"/>
	<path fill-rule="evenodd" clip-rule="evenodd" fill="#0080C3" d="M250.467,85.458c0.077-0.847-0.116-1.501-0.539-1.694
		c-0.885-0.385-2.04,0.616-3.195,3.08c-0.963,2.04-1.309,3.888-0.231,4.35c0.693,0.308,1.732-0.462,2.541-1.809l4.158,1.809
		c-2.31,4.35-7.545,5.967-10.548,4.119c-3.08-1.886-2.926-6.275-0.424-10.625c2.656-4.543,7.738-6.39,10.972-4.735
		c1.886,1.001,2.387,2.926,2.117,5.197L250.467,85.458L250.467,85.458z"/>
	<path fill-rule="evenodd" clip-rule="evenodd" fill="#0080C3" d="M31.493,64.169c0.038-1.001,0.077-2.002,0.193-3.003
		c3.773,0.347,4.504,2.079,7.815,2.079c3.657-0.039,5.467-2.117,9.085-2.117c3.619-0.039,5.467,2.079,9.008,2.117
		c1.578-0.039,2.849-0.424,4.042-0.886v3.003c-1.194,0.462-2.425,0.885-3.965,0.885c-3.619-0.038-5.428-2.117-9.085-2.117
		c-3.619,0-5.428,2.117-9.085,2.117C36.113,66.248,35.459,64.477,31.493,64.169L31.493,64.169z"/>
	<path fill-rule="evenodd" clip-rule="evenodd" fill="#0080C3" d="M75.881,77.027c-0.886,0-1.655-0.115-2.387-0.269l2.618-2.733
		c3.426-0.077,4.081-2.117,8.854-2.117c5.005,0,5.505,2.156,9.201,2.117c2.733,0,4.427-1.193,6.66-1.771
		c-0.231,1.117-0.539,2.194-0.885,3.272c-1.809,0.616-3.426,1.501-5.775,1.501c-3.696,0-4.196-2.117-9.201-2.117
		C80.116,74.91,79.538,77.027,75.881,77.027L75.881,77.027z"/>
	<path fill-rule="evenodd" clip-rule="evenodd" fill="#0080C3" d="M52.59,32.562c4.273-1.848,9.008-2.887,13.975-2.887
		c4.966,0,9.701,1.001,13.974,2.849c-1.463,0.616-2.541,1.309-4.658,1.309c-3.657,0.039-5.505-2.117-9.201-2.079
		c-3.619,0-5.428,2.079-9.008,2.079C55.631,33.833,54.13,33.14,52.59,32.562L52.59,32.562z"/>
	<path fill-rule="evenodd" clip-rule="evenodd" fill="#0080C3" d="M43.35,38.453c1.848-1.617,3.85-3.08,6.006-4.273
		c3.118,0.231,4.966,2.002,8.238,2.079c3.696-0.039,5.467-2.118,9.085-2.118c3.696-0.038,5.544,2.118,9.201,2.118
		c3.311-0.039,4.119-1.809,7.93-2.079c1.848,1.039,3.58,2.233,5.197,3.58c-1.001-0.347-2.194-0.654-4.042-0.654
		c-4.851,0-5.428,2.117-9.085,2.117c-3.657,0.038-5.505-2.117-9.201-2.117c-3.619,0.039-5.428,2.117-9.008,2.117
		c-3.619,0-5.428-2.117-9.085-2.117C46.469,37.144,44.967,37.875,43.35,38.453L43.35,38.453z"/>
	<path fill-rule="evenodd" clip-rule="evenodd" fill="#0080C3" d="M37.922,44.497c0.731-1.001,1.463-1.963,2.271-2.887
		c3.195-0.231,5.005-2.079,8.393-2.079c3.619,0,5.467,2.079,9.008,2.117c3.696-0.039,5.467-2.117,9.085-2.117
		c3.696,0,5.544,2.117,9.201,2.117c3.657,0,4.235-2.117,9.085-2.117c4.389,0,5.313,1.655,7.931,2.04
		c0.847,0.962,1.655,1.963,2.387,3.003c-0.346,0.038-0.731,0.077-1.116,0.077c-3.696,0-4.196-2.117-9.201-2.117
		c-4.851,0-5.428,2.117-9.085,2.117c-3.657,0-5.505-2.117-9.201-2.117c-3.619,0-5.428,2.079-9.008,2.117
		c-3.619-0.039-5.428-2.117-9.085-2.117c-3.619,0-5.428,2.117-9.085,2.117C38.885,44.651,38.384,44.574,37.922,44.497L37.922,44.497
		z"/>
	<path fill-rule="evenodd" clip-rule="evenodd" fill="#0080C3" d="M35.266,48.924c0.423-0.847,0.847-1.617,1.347-2.425
		c0.808,0.308,1.655,0.539,2.887,0.539c3.657,0,5.467-2.117,9.085-2.117c3.619,0,5.467,2.079,9.008,2.117
		c3.696-0.039,5.467-2.117,9.085-2.117c3.696,0,5.544,2.117,9.201,2.117c3.657,0,4.235-2.117,9.085-2.117
		c5.005,0,5.505,2.117,9.201,2.117c0.924,0,1.732-0.116,2.502-0.347c0.501,0.808,0.963,1.694,1.386,2.541
		c-1.155,0.424-2.348,0.808-3.888,0.808c-3.696,0.039-4.196-2.117-9.201-2.117c-4.851,0-5.428,2.117-9.085,2.117
		c-3.657,0.039-5.505-2.117-9.201-2.117c-3.619,0.039-5.428,2.117-9.008,2.117c-3.619-0.038-5.428-2.117-9.085-2.117
		c-3.619,0.039-5.428,2.117-9.085,2.117C37.576,50.079,36.536,49.501,35.266,48.924L35.266,48.924z"/>
	<path fill-rule="evenodd" clip-rule="evenodd" fill="#0080C3" d="M33.303,53.659c0.308-0.924,0.654-1.809,1.001-2.695
		c1.809,0.616,2.849,1.501,5.197,1.501c3.657-0.039,5.467-2.117,9.085-2.117c3.619-0.038,5.467,2.04,9.008,2.117
		c3.696-0.039,5.467-2.117,9.085-2.117c3.696-0.038,5.544,2.117,9.201,2.117c3.657-0.039,4.235-2.117,9.085-2.117
		c5.005,0,5.505,2.117,9.201,2.117c1.925-0.039,3.349-0.616,4.812-1.193c0.385,0.885,0.693,1.771,1.001,2.656
		c-1.848,0.616-3.465,1.501-5.813,1.501c-3.696,0.039-4.196-2.117-9.201-2.117c-4.851,0-5.428,2.117-9.085,2.117
		c-3.657,0.039-5.505-2.117-9.201-2.117c-3.619,0.038-5.428,2.117-9.008,2.117c-3.619-0.038-5.428-2.117-9.085-2.117
		c-3.619,0.038-5.428,2.117-9.085,2.117C36.729,55.468,35.766,54.237,33.303,53.659L33.303,53.659z"/>
	<path fill-rule="evenodd" clip-rule="evenodd" fill="#0080C3" d="M31.994,58.818c0.192-1.001,0.385-1.963,0.616-2.926
		c3.003,0.5,3.888,1.963,6.891,1.963c3.657-0.039,5.467-2.117,9.085-2.117c3.619,0,5.467,2.04,9.008,2.117
		c3.696-0.039,5.467-2.117,9.085-2.117c3.696,0,5.544,2.117,9.201,2.117c3.657-0.039,4.235-2.117,9.085-2.117
		c5.005,0,5.505,2.117,9.201,2.117c2.618-0.039,4.312-1.116,6.429-1.732c0.231,0.924,0.423,1.848,0.577,2.849
		c-2.387,0.539-4.158,1.848-7.007,1.848c-3.696,0.038-4.196-2.117-9.201-2.117c-4.851,0-5.428,2.117-9.085,2.117
		c-3.657,0.038-5.505-2.117-9.201-2.117c-3.619,0.039-5.428,2.117-9.008,2.117c-3.619-0.039-5.428-2.117-9.085-2.117
		c-3.619,0.039-5.428,2.117-9.085,2.117C36.267,60.858,35.497,59.203,31.994,58.818L31.994,58.818z"/>
	<path fill-rule="evenodd" clip-rule="evenodd" fill="#0080C3" d="M82.002,96.199c-4.658,2.271-9.894,3.58-15.438,3.58
		c-5.505,0-10.741-1.309-15.399-3.58H82.002L82.002,96.199z"/>
	<path fill-rule="evenodd" clip-rule="evenodd" fill="#0080C3" d="M89.394,91.348c-1.193,1.001-2.425,1.925-3.696,2.772H47.47
		c-1.309-0.847-2.502-1.771-3.696-2.772H89.394L89.394,91.348z"/>
	<path fill-rule="evenodd" clip-rule="evenodd" fill="#0080C3" d="M59.481,76.835c-0.539,0.115-1.155,0.192-1.809,0.192
		c-3.619-0.038-5.428-2.117-9.085-2.117c-3.619,0-5.428,2.117-9.085,2.117c-2.849,0-3.773-1.27-6.391-1.809
		c-0.308-1.04-0.616-2.079-0.808-3.157c3.272,0.462,4.081,2.002,7.199,1.963c3.657,0,5.467-2.079,9.085-2.117
		c3.619,0,5.467,2.079,9.008,2.117l1.386,1.27c0.231,0.308,0.385,0.731,0.462,1.155C59.481,76.604,59.481,76.719,59.481,76.835
		L59.481,76.835z"/>
	<path fill-rule="evenodd" clip-rule="evenodd" fill="#0080C3" d="M60.328,68.789l0.231,0.154l1.078,0.847
		c-0.539-0.385-1.078-0.808-1.617-1.232L60.328,68.789L60.328,68.789z"/>
	<path fill-rule="evenodd" clip-rule="evenodd" fill="#0080C3" d="M59.789,68.365c0.654-0.154,1.232-0.385,1.848-0.577v2.002
		l-1.078-0.847l-0.231-0.154l-0.308-0.231L59.789,68.365L59.789,68.365z"/>
	<path fill-rule="evenodd" clip-rule="evenodd" fill="#0080C3" d="M54.861,71.175c-2.002-0.616-3.696-1.655-6.275-1.655
		c-3.619,0-5.428,2.117-9.085,2.117c-3.272,0-4.004-1.655-7.661-2.04c-0.115-1.001-0.231-2.002-0.27-3.041
		c3.888,0.308,4.581,2.079,7.931,2.079c3.657,0,5.467-2.117,9.085-2.117c0.654,0,1.232,0.077,1.771,0.154l2.156,2.156L54.861,71.175
		L54.861,71.175z"/>
	<path fill-rule="evenodd" clip-rule="evenodd" fill="#0080C3" d="M71.377,70.598l-0.154-0.038v-3.003
		c0.77,0.308,1.578,0.616,2.425,0.809L71.377,70.598L71.377,70.598z"/>
	<path fill-rule="evenodd" clip-rule="evenodd" fill="#0080C3" d="M84.966,69.52c-3.003,0-4.35,0.809-5.813,1.424l4.158-4.35
		c0.5-0.038,1.039-0.077,1.655-0.077c5.005,0,5.505,2.117,9.201,2.117c3.041,0,4.812-1.463,7.43-1.963
		c-0.039,1.039-0.154,2.04-0.308,3.08c-2.464,0.501-4.196,1.886-7.122,1.886C90.471,71.637,89.971,69.52,84.966,69.52L84.966,69.52z
		"/>
	<path fill-rule="evenodd" clip-rule="evenodd" fill="#0080C3" d="M71.223,62.167c1.386,0.501,2.772,1.078,4.658,1.078
		c3.657-0.039,4.235-2.117,9.085-2.117c5.005,0,5.505,2.117,9.201,2.117c3.003-0.039,4.774-1.463,7.314-1.963
		c0.116,1.001,0.154,1.963,0.154,2.964c-2.656,0.5-4.427,2.002-7.468,2.002c-3.696,0-4.196-2.117-9.201-2.117
		c-4.851,0-5.428,2.117-9.085,2.117c-1.886,0-3.272-0.539-4.658-1.078V62.167L71.223,62.167z"/>
	<path fill-rule="evenodd" clip-rule="evenodd" fill="#0080C3" d="M94.244,86.266c-0.847,1.039-1.694,2.079-2.618,3.003H41.541
		c-0.924-0.924-1.771-1.963-2.618-3.003h20.596h1.54v-9.085c0,0,0.039-1.732-0.885-2.926l-6.583-6.506c0,0,2.271,0.962,4.235,0.886
		l4.273,3.619c0,0,1.078,0.654,1.078-0.654v-9.778c0,0,3.234-1.501,6.506-0.193v11.203c0,0,0,1.694,1.386,0.308l4.504-4.504
		c0,0,1.27,0.077,2.656-0.347c0,0,1.232-0.424,1.925-0.808l0.231-0.077l-9.278,9.586c0,0-0.539,0.77-0.539,2.464v6.814h1.54H94.244
		L94.244,86.266z"/>
	<path fill-rule="evenodd" clip-rule="evenodd" fill="#0080C3" d="M173.703,89.423c-1.925-1.386-2.579-3.349-1.617-5.621
		c1.078-2.81,4.042-4.504,7.969-3.734c1.809,0.385,2.425,0.885,3.503,1.578l-3.041,3.965c-0.154-0.385-0.424-0.731-0.885-1.001
		c-0.924-0.539-1.925-0.5-2.194,0.077c-0.27,0.578-0.385,1.232,1.039,1.848l0.193,0.116c0.962,0.654,2.079,1.078,2.502,3.657
		c0,4.735-4.697,6.93-8.508,6.198c-1.578-0.308-2.579-0.731-4.004-1.963l3.041-4.004c0.193,0.5,0.501,1.001,1.232,1.386
		c0.962,0.501,2.002,0.385,2.348-0.269c0.308-0.655,0.308-1.27-0.885-1.848L173.703,89.423L173.703,89.423z"/>
</g>
</svg>
